<svg width="167" height="64" viewBox="0 0 167 64" fill="none" xmlns="http://www.w3.org/2000/svg">
<g id="Logo/BA" clip-path="url(#clip0_1109_5435)">
<path id="Vector" d="M167 0H0V64H167V0Z" fill="#000B8C"/>
<path id="Vector_2" d="M45.9889 20.371C41.848 19.8069 37.68 19.4676 33.5029 19.3545C36.3694 16.4101 39.0741 13.3102 41.6049 10.0686C38.3108 12.4932 35.1481 15.0941 32.1307 17.8602C31.7826 10.094 31.0158 4.57434 31.0158 4.57434C31.0158 4.57434 30.2237 10.0839 29.9009 17.8399C26.8797 15.0793 23.7155 12.4818 20.4216 10.0585C22.9346 13.2888 25.6207 16.3786 28.4681 19.3139C24.2993 19.3471 20.139 19.6971 16.0225 20.3609C20.1206 21.0227 24.2623 21.3727 28.4126 21.4079C25.5064 24.2801 22.831 27.38 20.4115 30.6785C23.7113 28.3813 26.8315 25.8325 29.7445 23.0546C29.6412 29.329 30.0614 35.6009 31.0006 41.8043C31.9539 35.6056 32.3842 29.3367 32.2871 23.0648C35.202 25.8426 38.3238 28.3914 41.6251 30.6887C39.1906 27.3824 36.5036 24.2725 33.5887 21.3876C37.7434 21.2646 41.8891 20.9253 46.0091 20.371H45.9889Z" fill="white"/>
<path id="Vector_3" d="M51.2101 13.4282V20.2491C51.8009 19.6605 52.4955 19.1882 53.2583 18.8564C54.0049 18.5445 54.8061 18.3872 55.6143 18.3939C56.4868 18.3816 57.3519 18.5566 58.1521 18.9071C58.9523 19.2576 59.6694 19.7757 60.2555 20.427C60.9 21.1222 61.4012 21.9392 61.7302 22.8308C62.0593 23.7224 62.2096 24.6709 62.1726 25.6214C62.1981 26.5634 62.0363 27.5011 61.6967 28.3793C61.3571 29.2574 60.8465 30.0582 60.195 30.7345C59.5991 31.3842 58.8745 31.9009 58.0681 32.251C57.2617 32.6012 56.3914 32.7772 55.5134 32.7675C54.7455 32.7746 53.9834 32.6331 53.2684 32.3507C52.5067 32.0316 51.8092 31.5752 51.2101 31.0038V32.4676H47.6787V13.4282H51.2101ZM54.8878 21.5604C54.3786 21.5448 53.8716 21.6352 53.3985 21.8259C52.9255 22.0165 52.4965 22.3033 52.1384 22.6684C51.7718 23.052 51.4862 23.5065 51.2989 24.0044C51.1116 24.5024 51.0265 25.0334 51.0487 25.5655C51.0255 26.1068 51.11 26.6473 51.2971 27.1553C51.4842 27.6633 51.7703 28.1285 52.1384 28.5235C52.4945 28.8919 52.9229 29.1816 53.3963 29.3741C53.8696 29.5666 54.3776 29.6578 54.8878 29.6417C55.3909 29.6523 55.8906 29.5565 56.3547 29.3604C56.8187 29.1643 57.2368 28.8723 57.5818 28.5032C57.949 28.1144 58.2354 27.6556 58.4243 27.1537C58.6131 26.6519 58.7006 26.1171 58.6815 25.5807C58.7005 25.0511 58.6153 24.5229 58.4309 24.0266C58.2465 23.5303 57.9665 23.0756 57.607 22.6887C57.2583 22.3174 56.8361 22.0242 56.3676 21.8281C55.8991 21.6319 55.395 21.5373 54.8878 21.5502V21.5604Z" fill="white"/>
<path id="Vector_4" d="M65.0129 18.7293H68.5443V25.3367C68.4988 26.2367 68.5907 27.1383 68.8167 28.0102C68.9727 28.4842 69.2794 28.8933 69.6894 29.1741C70.1308 29.4648 70.6507 29.6104 71.1777 29.5908C71.7119 29.6116 72.2398 29.468 72.6911 29.1792C73.1124 28.8799 73.4243 28.4496 73.579 27.9542C73.7713 27.1219 73.846 26.2664 73.801 25.4129V18.7293H77.3324V24.5387C77.3324 26.9326 77.1357 28.5692 76.7522 29.4536C76.3218 30.4733 75.5933 31.3367 74.6637 31.9288C73.5909 32.5456 72.366 32.8417 71.1323 32.7827C69.815 32.8413 68.5122 32.4861 67.4041 31.7662C66.4415 31.0799 65.7318 30.0914 65.3862 28.9555C65.1137 28.1271 64.9775 26.6074 64.9775 24.4168L65.0129 18.7293Z" fill="white"/>
<path id="Vector_5" d="M89.3598 20.6811L87.1804 22.8158C86.2673 21.9771 85.4904 21.5502 84.7538 21.5502C84.4267 21.5312 84.1019 21.6166 83.8256 21.7942C83.7224 21.8576 83.6368 21.9464 83.5768 22.0521C83.5169 22.1579 83.4844 22.2772 83.4825 22.399C83.489 22.5909 83.5685 22.7729 83.7045 22.9073C84.0188 23.1736 84.3729 23.388 84.7538 23.5426L86.0453 24.1627C87.1147 24.605 88.0703 25.2863 88.8402 26.155C89.3526 26.8428 89.6209 27.6841 89.602 28.5439C89.6141 29.1227 89.4977 29.697 89.2612 30.2246C89.0246 30.7523 88.6739 31.2199 88.2348 31.5934C87.2038 32.4411 85.896 32.8707 84.5672 32.798C83.6288 32.8243 82.6978 32.6235 81.8525 32.2122C81.0071 31.801 80.272 31.1913 79.709 30.4346L81.8631 28.1271C82.273 28.5908 82.7637 28.975 83.311 29.2605C83.7558 29.5247 84.2582 29.6748 84.774 29.6976C85.1729 29.718 85.5671 29.6035 85.894 29.3723C86.0186 29.2896 86.1221 29.1783 86.1957 29.0476C86.2694 28.9168 86.3112 28.7703 86.3178 28.6201C86.3178 28.1118 85.8133 27.5782 84.8043 27.0953L83.6238 26.5159C81.3536 25.4028 80.2286 24.0102 80.2286 22.338C80.2238 21.8085 80.3363 21.2846 80.558 20.8045C80.7796 20.3244 81.1049 19.9003 81.51 19.5629C82.4068 18.776 83.5651 18.3586 84.7538 18.3939C85.6449 18.3904 86.5245 18.595 87.3237 18.9919C88.123 19.3888 88.8199 19.967 89.3598 20.6811Z" fill="white"/>
<path id="Vector_6" d="M93.7987 13.0978C94.0915 13.0958 94.3818 13.1522 94.6528 13.2637C94.9239 13.3752 95.1704 13.5396 95.3781 13.7474C95.5858 13.9553 95.7507 14.2025 95.8632 14.4748C95.9757 14.7471 96.0336 15.0392 96.0336 15.3342C96.0309 15.9206 95.7982 16.4822 95.3861 16.8964C94.974 17.3106 94.4161 17.5438 93.834 17.5451C93.5382 17.5464 93.245 17.4887 92.9714 17.3753C92.6978 17.2618 92.4493 17.0949 92.2401 16.8842C92.0309 16.6734 91.8652 16.423 91.7526 16.1473C91.64 15.8717 91.5827 15.5763 91.584 15.2783C91.5824 14.9927 91.6394 14.7098 91.7514 14.4474C91.8634 14.185 92.028 13.9488 92.2348 13.7535C92.4385 13.5441 92.6819 13.3782 92.9506 13.2655C93.2193 13.1529 93.5077 13.0958 93.7987 13.0978ZM92.0128 18.7293H95.5442V32.4523H92.0128V18.7293Z" fill="white"/>
<path id="Vector_7" d="M98.6875 18.7294H102.219V20.1474C102.861 19.5924 103.584 19.1399 104.363 18.8056C104.992 18.5523 105.663 18.4212 106.341 18.4193C106.994 18.4045 107.645 18.5235 108.251 18.7689C108.858 19.0144 109.41 19.3813 109.872 19.8475C110.674 20.6557 111.088 21.845 111.088 23.4053V32.4625H107.556V26.4549C107.601 25.3642 107.528 24.2719 107.339 23.197C107.227 22.7123 106.955 22.2804 106.568 21.972C106.177 21.6809 105.701 21.5322 105.216 21.5502C104.549 21.5341 103.903 21.7844 103.42 22.2465C102.887 22.7719 102.523 23.4466 102.375 24.183C102.244 25.1017 102.195 26.0305 102.229 26.9581V32.4625H98.6976L98.6875 18.7294Z" fill="white"/>
<path id="Vector_8" d="M128.412 26.5769H117.177C117.309 27.4848 117.769 28.3117 118.468 28.8996C119.24 29.4925 120.193 29.7962 121.162 29.7586C121.783 29.7684 122.398 29.655 122.975 29.4247C123.552 29.1945 124.077 28.852 124.522 28.4168L127.453 29.7738C126.783 30.7483 125.877 31.5339 124.82 32.0559C123.676 32.5672 122.434 32.8154 121.183 32.7827C120.203 32.8223 119.226 32.6627 118.309 32.3134C117.392 31.9641 116.554 31.4323 115.845 30.7497C115.173 30.0909 114.644 29.2994 114.29 28.4248C113.935 27.5502 113.764 26.6114 113.787 25.6671C113.76 24.7052 113.929 23.7479 114.282 22.8538C114.635 21.9597 115.166 21.1475 115.841 20.4668C116.516 19.7861 117.322 19.2512 118.209 18.8948C119.096 18.5384 120.046 18.368 121.001 18.3939C121.994 18.3414 122.986 18.5005 123.913 18.8609C124.841 19.2213 125.682 19.7748 126.383 20.4853C127.083 21.1958 127.627 22.0472 127.978 22.9839C128.33 23.9207 128.481 24.9216 128.422 25.9212L128.412 26.5769ZM124.906 23.8882C124.676 23.1335 124.19 22.4842 123.534 22.0534C122.842 21.5778 122.02 21.3309 121.183 21.3469C120.265 21.3284 119.366 21.6043 118.615 22.1347C118.05 22.6033 117.61 23.2058 117.333 23.8882H124.906Z" fill="white"/>
<path id="Vector_9" d="M139.833 20.6811L137.654 22.8158C136.771 21.9771 135.964 21.5502 135.242 21.5502C134.915 21.5312 134.59 21.6166 134.314 21.7942C134.212 21.8579 134.127 21.9468 134.068 22.0526C134.009 22.1584 133.977 22.2776 133.976 22.399C133.981 22.5903 134.058 22.7723 134.193 22.9073C134.506 23.1752 134.861 23.3898 135.242 23.5426L136.529 24.1627C137.599 24.6029 138.555 25.2845 139.324 26.155C139.91 26.9719 140.174 27.979 140.065 28.9811C139.956 29.9832 139.482 30.9088 138.733 31.5782C137.707 32.4265 136.402 32.8563 135.076 32.7827C134.129 32.8199 133.187 32.6258 132.331 32.2169C131.474 31.808 130.728 31.1965 130.157 30.4346L132.316 28.1271C132.721 28.5941 133.211 28.9788 133.759 29.2605C134.207 29.5228 134.71 29.6728 135.227 29.6976C135.626 29.7172 136.02 29.6028 136.347 29.3723C136.471 29.2894 136.574 29.1779 136.647 29.0471C136.72 28.9163 136.76 28.7699 136.766 28.6201C136.766 28.1118 136.262 27.5782 135.253 27.0953L134.072 26.5159C131.798 25.3909 130.662 23.9915 130.662 22.3177C130.661 21.7888 130.775 21.2662 130.996 20.7867C131.218 20.3072 131.541 19.8825 131.943 19.5426C132.852 18.7584 134.021 18.3483 135.217 18.3939C136.107 18.3902 136.986 18.5937 137.785 18.9886C138.591 19.3817 139.293 19.9618 139.833 20.6811Z" fill="white"/>
<path id="Vector_10" d="M151.401 20.6811L149.222 22.8158C148.319 21.9771 147.532 21.5502 146.806 21.5502C146.478 21.5305 146.153 21.6159 145.877 21.7942C145.775 21.8579 145.69 21.9468 145.631 22.0526C145.572 22.1584 145.54 22.2776 145.539 22.399C145.542 22.5897 145.618 22.7721 145.751 22.9072C146.068 23.172 146.424 23.3862 146.806 23.5426L148.097 24.1626C149.167 24.6007 150.122 25.2827 150.887 26.155C151.401 26.8417 151.67 27.6837 151.649 28.5438C151.662 29.1228 151.546 29.6975 151.309 30.2253C151.073 30.7531 150.721 31.2206 150.282 31.5934C149.252 32.4394 147.946 32.8689 146.619 32.798C145.68 32.8256 144.749 32.6253 143.903 32.2139C143.058 31.8026 142.323 31.1923 141.761 30.4346L143.915 28.1271C144.321 28.5929 144.81 28.9774 145.358 29.2605C145.805 29.5236 146.309 29.6735 146.826 29.6976C147.225 29.718 147.619 29.6035 147.946 29.3723C148.071 29.2903 148.174 29.179 148.247 29.048C148.32 28.917 148.36 28.7702 148.364 28.6201C148.364 28.0915 147.86 27.5832 146.851 27.0953L145.665 26.5159C143.399 25.3909 142.265 23.9915 142.265 22.3177C142.26 21.7882 142.373 21.2643 142.595 20.7842C142.816 20.3041 143.142 19.8799 143.547 19.5426C144.451 18.7603 145.615 18.3501 146.806 18.3939C147.696 18.3889 148.575 18.5925 149.373 18.9886C150.173 19.3836 150.867 19.9636 151.401 20.6811Z" fill="white"/>
<path id="Vector_11" d="M16.5725 43.9593H20.4015V59.0191H16.5725V57.4333C15.9172 58.0755 15.1514 58.5922 14.3124 58.9581C13.5315 59.2738 12.6969 59.4327 11.8555 59.4257C10.8893 59.4306 9.93282 59.2309 9.0481 58.8395C8.16337 58.4481 7.37016 57.8738 6.71988 57.1537C6.00152 56.4084 5.43859 55.5256 5.06428 54.5575C4.68998 53.5895 4.51188 52.5557 4.5405 51.5172C4.46358 49.4044 5.21991 47.3468 6.6442 45.7942C7.28937 45.0803 8.07769 44.5127 8.95696 44.129C9.83624 43.7452 10.7864 43.554 11.7446 43.568C12.6335 43.5661 13.5143 43.7387 14.3376 44.0762C15.1722 44.4365 15.9307 44.954 16.5725 45.601V43.9593ZM12.5366 47.0089C11.9781 46.9955 11.4233 47.1024 10.9091 47.3224C10.395 47.5424 9.93333 47.8705 9.55509 48.2846C8.76078 49.1487 8.33819 50.2944 8.37964 51.4714C8.34247 52.664 8.77604 53.8227 9.58536 54.6938C9.9609 55.1024 10.418 55.4265 10.9266 55.6446C11.4352 55.8627 11.9839 55.97 12.5366 55.9593C13.0949 55.9758 13.6504 55.8734 14.1668 55.6589C14.6832 55.4443 15.1488 55.1224 15.5332 54.7141C15.9398 54.2777 16.2555 53.7637 16.4617 53.2024C16.6679 52.6411 16.7605 52.0439 16.7339 51.446C16.7591 50.8582 16.6657 50.2714 16.4593 49.721C16.2529 49.1707 15.9379 48.6682 15.5332 48.244C15.1437 47.8399 14.6744 47.5226 14.1557 47.3125C13.6369 47.1024 13.0802 47.0041 12.5215 47.0241L12.5366 47.0089Z" fill="white"/>
<path id="Vector_12" d="M24.2705 43.9594H28.1651V51.2122C28.1163 52.2043 28.2167 53.1982 28.4628 54.1601C28.6398 54.6798 28.9753 55.1298 29.4213 55.446C29.9035 55.7579 30.468 55.9156 31.0407 55.8984C31.6213 55.9154 32.1938 55.7579 32.6853 55.446C33.1538 55.1283 33.5077 54.6665 33.6943 54.1296C33.9079 53.2161 33.9895 52.2763 33.9365 51.3393V43.9594H37.7655V50.3482C37.7655 52.9708 37.5587 54.77 37.1349 55.7459C36.6627 56.8628 35.8615 57.8066 34.8395 58.4498C33.6733 59.1224 32.3431 59.4517 31.0004 59.4003C29.558 59.4669 28.1311 59.0777 26.9191 58.2872C25.8697 57.5364 25.0964 56.4571 24.7195 55.2173C24.4219 54.3024 24.2705 52.676 24.2705 50.2262V43.9594Z" fill="white"/>
<path id="Vector_13" d="M42.0486 38.4142H45.8776V43.9594H48.1478V47.202H45.8776V59.0191H42.0486V47.202H40.0811V43.9594H42.0486V38.4142Z" fill="white"/>
<path id="Vector_14" d="M57.4361 43.568C58.8646 43.5618 60.2705 43.9277 61.5174 44.6302C62.7549 45.3033 63.7873 46.3031 64.5039 47.5222C65.2129 48.7153 65.5845 50.0809 65.5785 51.4714C65.5816 52.8766 65.2086 54.2567 64.4989 55.4663C63.7995 56.6863 62.7802 57.6887 61.5527 58.3634C60.2984 59.0691 58.8827 59.4318 57.4462 59.4155C56.4009 59.434 55.3628 59.2391 54.3943 58.8425C53.4258 58.446 52.5471 57.8559 51.811 57.108C51.0484 56.3517 50.4483 55.4455 50.048 54.4456C49.6477 53.4457 49.4558 52.3736 49.4842 51.2959C49.5126 50.2181 49.7607 49.1578 50.213 48.1807C50.6654 47.2037 51.3124 46.3308 52.1137 45.6163C53.5693 44.2839 55.4695 43.5526 57.4361 43.568ZM57.5017 47.1258C56.9427 47.1066 56.3859 47.2047 55.8666 47.4138C55.3472 47.6229 54.8767 47.9385 54.4848 48.3405C54.0863 48.7565 53.7746 49.2489 53.5684 49.7884C53.3621 50.3279 53.2655 50.9037 53.2841 51.4816C53.2601 52.0664 53.3526 52.6502 53.5562 53.1984C53.7599 53.7466 54.0705 54.2482 54.4697 54.6734C54.8615 55.0839 55.3352 55.4062 55.8595 55.619C56.3838 55.8319 56.9469 55.9306 57.5117 55.9085C58.0735 55.924 58.6324 55.8223 59.1533 55.6097C59.6742 55.3972 60.1459 55.0784 60.5387 54.6734C60.9408 54.2516 61.2544 53.7525 61.4607 53.2058C61.667 52.6591 61.7617 52.0762 61.7393 51.4917C61.7623 50.9096 61.6677 50.3287 61.4613 49.7845C61.255 49.2402 60.9411 48.7438 60.5387 48.3253C60.1461 47.9211 59.6741 47.6038 59.1529 47.3938C58.6317 47.1837 58.0727 47.0855 57.5117 47.1055L57.5017 47.1258Z" fill="white"/>
<path id="Vector_15" d="M68.6807 43.9594H72.5097V45.6925C73.1284 45.0128 73.8787 44.468 74.7143 44.0915C75.5496 43.7405 76.4479 43.5674 77.3528 43.5832C78.2763 43.5628 79.1865 43.8089 79.9757 44.2925C80.765 44.7761 81.4006 45.477 81.8074 46.3126C82.3739 45.457 83.1448 44.7586 84.0493 44.2817C84.9538 43.8048 85.9627 43.5646 86.9834 43.5832C87.9941 43.5639 88.9912 43.8203 89.8691 44.3253C90.6439 44.7708 91.2665 45.4424 91.655 46.2516C92.0182 47.0597 92.1948 48.366 92.1948 50.1754V59.0089H88.3657V51.385C88.3657 49.6773 88.1538 48.5235 87.7149 47.9187C87.4867 47.6204 87.1894 47.3829 86.8491 47.227C86.5088 47.071 86.1357 47.0014 85.7626 47.0242C85.1236 47.016 84.4978 47.2078 83.9716 47.5731C83.4345 47.9497 83.023 48.4813 82.7911 49.0979C82.4843 50.1095 82.3546 51.1672 82.4077 52.2236V59.014H78.5736V51.7357C78.6158 50.7502 78.5138 49.7638 78.2709 48.8081C78.1102 48.2731 77.7874 47.8022 77.3477 47.4613C76.9141 47.16 76.396 47.0068 75.8696 47.0242C75.2386 47.0171 74.6219 47.213 74.1089 47.5832C73.5664 47.9752 73.1534 48.5224 72.9234 49.1538C72.6112 50.1818 72.4781 51.2566 72.5299 52.3304V59.0191H68.7008L68.6807 43.9594Z" fill="white"/>
<path id="Vector_16" d="M107.122 43.9593H110.951V59.019H107.122V57.4333C106.47 58.0764 105.705 58.5933 104.867 58.9581C104.084 59.2733 103.248 59.4322 102.405 59.4257C101.439 59.4306 100.482 59.2309 99.5978 58.8395C98.7131 58.4481 97.9198 57.8738 97.2696 57.1537C96.5542 56.4087 95.9939 55.5273 95.6214 54.5611C95.2488 53.5949 95.0717 52.5634 95.1003 51.5273C95.022 49.4152 95.7765 47.3578 97.1989 45.8043C97.8419 45.0905 98.6284 44.5228 99.5061 44.1389C100.384 43.7551 101.332 43.5639 102.289 43.5781C103.181 43.5762 104.065 43.7488 104.892 44.0864C105.725 44.4479 106.481 44.9654 107.122 45.6112V43.9593ZM103.086 47.0089C102.529 46.9956 101.974 47.1025 101.461 47.3226C100.948 47.5426 100.487 47.8706 100.11 48.2846C99.3472 49.1799 98.9301 50.3218 98.9347 51.5015C98.9393 52.6813 99.3654 53.8199 100.135 54.709C100.511 55.1181 100.969 55.4423 101.479 55.6604C101.988 55.8785 102.538 55.9856 103.091 55.9746C103.649 55.9895 104.204 55.8864 104.721 55.6719C105.237 55.4574 105.703 55.1363 106.088 54.7293C106.492 54.2916 106.805 53.7772 107.01 53.216C107.214 52.6549 107.306 52.0583 107.279 51.4612C107.304 50.8743 107.212 50.2881 107.007 49.7379C106.803 49.1877 106.49 48.6848 106.088 48.2592C105.698 47.8535 105.228 47.5342 104.709 47.3215C104.189 47.1089 103.632 47.0076 103.071 47.0241L103.086 47.0089Z" fill="white"/>
<path id="Vector_17" d="M115.29 38.4142H119.119V43.9594H121.395V47.202H119.119V59.0191H115.29V47.202H113.333V43.9594H115.29V38.4142Z" fill="white"/>
<path id="Vector_18" d="M124.972 37.7738C125.294 37.7691 125.613 37.8307 125.911 37.9548C126.208 38.0789 126.477 38.2629 126.702 38.4955C126.93 38.7204 127.111 38.9888 127.235 39.2851C127.359 39.5814 127.422 39.8996 127.422 40.2211C127.422 40.5425 127.359 40.8607 127.235 41.157C127.111 41.4534 126.93 41.7218 126.702 41.9466C126.48 42.175 126.215 42.3557 125.922 42.478C125.628 42.6003 125.314 42.6616 124.997 42.6582C124.672 42.663 124.349 42.6015 124.048 42.4775C123.747 42.3534 123.475 42.1694 123.246 41.9365C123.013 41.7086 122.829 41.435 122.705 41.1325C122.58 40.83 122.519 40.5051 122.525 40.1779C122.52 39.8602 122.581 39.5449 122.704 39.2525C122.828 38.9601 123.011 38.697 123.241 38.4803C123.468 38.2516 123.738 38.0712 124.035 37.9499C124.332 37.8285 124.651 37.7686 124.972 37.7738ZM123.065 43.9593H126.899V59.019H123.065V43.9593Z" fill="white"/>
<path id="Vector_19" d="M137.593 43.568C139.024 43.5605 140.432 43.9265 141.68 44.6302C142.917 45.3033 143.95 46.3031 144.666 47.5222C145.376 48.7154 145.749 50.0807 145.746 51.4714C145.748 52.8778 145.371 54.2585 144.656 55.4663C143.961 56.6864 142.945 57.6891 141.72 58.3634C140.464 59.0679 139.046 59.4305 137.609 59.4155C136.563 59.4331 135.526 59.2378 134.557 58.8413C133.589 58.4448 132.71 57.8552 131.973 57.108C131.209 56.3528 130.607 55.4471 130.206 54.4473C129.804 53.4475 129.611 52.3751 129.639 51.2969C129.667 50.2187 129.915 49.1579 130.368 48.1805C130.821 47.2032 131.469 46.3303 132.271 45.6163C133.727 44.2839 135.627 43.5526 137.593 43.568ZM137.664 47.1258C137.106 47.1114 136.551 47.2137 136.035 47.4263C135.518 47.6389 135.051 47.9571 134.662 48.3609C134.265 48.7775 133.955 49.2702 133.751 49.8098C133.546 50.3493 133.451 50.9247 133.472 51.5019C133.446 52.0865 133.537 52.6704 133.74 53.2188C133.943 53.7671 134.253 54.2688 134.652 54.6938C135.04 55.0972 135.508 55.4146 136.025 55.6255C136.542 55.8364 137.097 55.9363 137.654 55.9187C138.216 55.9367 138.776 55.8361 139.297 55.6234C139.818 55.4107 140.29 55.0906 140.681 54.6836C141.084 54.2621 141.398 53.7631 141.605 53.2164C141.812 52.6698 141.908 52.0867 141.887 51.5019C141.91 50.9225 141.817 50.3442 141.614 49.8019C141.41 49.2595 141.099 48.7642 140.701 48.3456C140.308 47.9377 139.835 47.6168 139.312 47.4032C138.789 47.1897 138.228 47.0883 137.664 47.1055V47.1258Z" fill="white"/>
<path id="Vector_20" d="M148.823 43.9593H152.657V45.4841C153.368 44.858 154.17 44.3439 155.033 43.9593C155.727 43.6799 156.466 43.5368 157.213 43.5375C157.931 43.5221 158.644 43.6528 159.311 43.9218C159.978 44.1907 160.583 44.5925 161.092 45.1029C161.985 45.9873 162.429 47.2986 162.429 49.0267V58.9886H158.635V52.3812C158.686 51.1795 158.603 49.976 158.388 48.7929C158.267 48.257 157.961 47.7815 157.525 47.4505C157.09 47.1195 156.552 46.9541 156.007 46.9835C155.261 46.9647 154.537 47.2401 153.989 47.7509C153.401 48.3387 153.006 49.0946 152.859 49.9161C152.712 50.9255 152.657 51.9462 152.693 52.9657V59.014H148.823V43.9593Z" fill="white"/>
</g>
<defs>
<clipPath id="clip0_1109_5435">
<rect width="167" height="64" fill="white"/>
</clipPath>
</defs>
</svg>
